<svg width="145" height="53" viewBox="0 0 145 53" fill="none" xmlns="http://www.w3.org/2000/svg">
<path d="M23.1447 42.3283C19.931 43.6601 18.4219 47.463 19.9492 50.3815C22.9854 49.4971 24.9627 45.3599 23.1447 42.3283Z" fill="#FFC80A"/>
<path d="M18.7331 37.1003C15.7184 38.0863 14.0768 41.4363 15.2569 44.1946C18.0785 43.6028 20.1693 39.9817 18.7331 37.1003Z" fill="#FFC80A"/>
<path d="M15.4006 31.3456C12.3769 32.3043 10.7046 35.6394 11.8592 38.4082C14.6862 37.8419 16.8102 34.2398 15.4006 31.3456Z" fill="#FFC80A"/>
<path d="M14.5673 26.0222C11.2861 26.0752 8.6243 28.8796 8.93046 31.961C11.8985 32.2379 15.0879 29.3032 14.5673 26.0222Z" fill="#FFC80A"/>
<path d="M14.5145 20.8367C11.5741 20.1204 8.53338 22.0035 8.07539 24.8243C10.6581 25.7621 14.2005 23.8855 14.5145 20.8367Z" fill="#FFC80A"/>
<path d="M16.4331 15.6882C13.7003 14.3966 10.3373 15.6302 9.3115 18.3006C11.6486 19.7373 15.5016 18.6107 16.4331 15.6882Z" fill="#FFC80A"/>
<path d="M18.0185 11.3803C15.9661 9.83618 12.9478 10.289 11.6268 12.3392C13.3241 13.9366 16.7321 13.6569 18.0185 11.3803Z" fill="#FFC80A"/>
<path d="M22.1375 6.71955C20.2922 4.93732 17.2406 5.01936 15.6752 6.89328C17.1615 8.68516 20.5784 8.82228 22.1375 6.71955Z" fill="#FFC80A"/>
<path d="M10.5164 49.6822C12.4772 52.5339 16.5417 53.2371 19.1236 51.1713C17.641 48.4023 13.1521 47.3117 10.5164 49.6822Z" fill="#FFC80A"/>
<path d="M6.73371 42.9011C8.31243 45.6289 11.9554 46.5514 14.4483 44.8545C13.2981 42.2352 9.29709 40.9311 6.73371 42.9011Z" fill="#FFC80A"/>
<path d="M3.35081 37.0378C4.90438 39.7798 8.53874 40.735 11.0471 39.0607C9.9211 36.4311 5.9322 35.091 3.35081 37.0378Z" fill="#FFC80A"/>
<path d="M0.927373 28.0859C1.63633 31.2588 4.94361 33.2803 7.93102 32.3667C7.61115 29.4316 4.06934 26.9242 0.927373 28.0859Z" fill="#FFC80A"/>
<path d="M1.85367 19.5039C1.73338 22.5001 4.20485 25.0736 7.08738 24.9535C7.49843 22.26 4.93296 19.1985 1.85367 19.5039Z" fill="#FFC80A"/>
<path d="M4.30943 11.8415C3.57835 14.7515 5.47178 17.7676 8.31905 18.2286C9.27289 15.6735 7.38731 12.1606 4.30943 11.8415Z" fill="#FFC80A"/>
<path d="M8.58316 6.1C7.46606 8.40037 8.51799 11.2383 10.8108 12.1098C12.0516 10.1433 11.0929 6.89258 8.58316 6.1Z" fill="#FFC80A"/>
<path d="M13.4294 0.330869C12.0353 2.47786 12.7271 5.42231 14.8943 6.56618C16.3698 4.76559 15.8218 1.42287 13.4294 0.330869Z" fill="#FFC80A"/>
<path d="M121.855 42.3283C125.069 43.6601 126.578 47.463 125.051 50.3815C122.015 49.4971 120.037 45.3599 121.855 42.3283Z" fill="#FFC80A"/>
<path d="M126.267 37.1003C129.282 38.0863 130.923 41.4363 129.743 44.1946C126.922 43.6028 124.831 39.9817 126.267 37.1003Z" fill="#FFC80A"/>
<path d="M129.599 31.3456C132.623 32.3043 134.295 35.6394 133.141 38.4082C130.314 37.8419 128.19 34.2398 129.599 31.3456Z" fill="#FFC80A"/>
<path d="M130.433 26.0222C133.714 26.0752 136.376 28.8796 136.07 31.961C133.102 32.2379 129.912 29.3032 130.433 26.0222Z" fill="#FFC80A"/>
<path d="M130.486 20.8367C133.426 20.1204 136.467 22.0035 136.925 24.8243C134.342 25.7621 130.8 23.8855 130.486 20.8367Z" fill="#FFC80A"/>
<path d="M128.567 15.6882C131.3 14.3966 134.663 15.6302 135.689 18.3006C133.351 19.7373 129.498 18.6107 128.567 15.6882Z" fill="#FFC80A"/>
<path d="M126.981 11.3803C129.034 9.83618 132.052 10.289 133.373 12.3392C131.676 13.9366 128.268 13.6569 126.981 11.3803Z" fill="#FFC80A"/>
<path d="M122.863 6.71955C124.708 4.93732 127.759 5.01936 129.325 6.89328C127.839 8.68516 124.422 8.82228 122.863 6.71955Z" fill="#FFC80A"/>
<path d="M134.484 49.6822C132.523 52.5339 128.458 53.2371 125.876 51.1713C127.359 48.4023 131.848 47.3117 134.484 49.6822Z" fill="#FFC80A"/>
<path d="M138.266 42.9011C136.688 45.6289 133.045 46.5514 130.552 44.8545C131.702 42.2352 135.703 40.9311 138.266 42.9011Z" fill="#FFC80A"/>
<path d="M141.649 37.0378C140.096 39.7798 136.461 40.735 133.953 39.0607C135.079 36.4311 139.068 35.091 141.649 37.0378Z" fill="#FFC80A"/>
<path d="M144.073 28.0859C143.364 31.2588 140.056 33.2803 137.069 32.3667C137.389 29.4316 140.931 26.9242 144.073 28.0859Z" fill="#FFC80A"/>
<path d="M143.146 19.5039C143.267 22.5001 140.795 25.0736 137.913 24.9535C137.502 22.26 140.067 19.1985 143.146 19.5039Z" fill="#FFC80A"/>
<path d="M140.691 11.8415C141.422 14.7515 139.528 17.7676 136.681 18.2286C135.727 15.6735 137.613 12.1606 140.691 11.8415Z" fill="#FFC80A"/>
<path d="M136.417 6.1C137.534 8.40037 136.482 11.2383 134.189 12.1098C132.948 10.1433 133.907 6.89258 136.417 6.1Z" fill="#FFC80A"/>
<path d="M131.571 0.330869C132.965 2.47786 132.273 5.42231 130.106 6.56618C128.63 4.76559 129.178 1.42287 131.571 0.330869Z" fill="#FFC80A"/>
</svg>
