<svg width="230" height="111" viewBox="0 0 230 111" fill="none" xmlns="http://www.w3.org/2000/svg">
<path d="M47.6799 88.0548C41.0593 90.8254 37.9506 98.7366 41.0968 104.808C47.3517 102.968 51.4251 94.3615 47.6799 88.0548Z" fill="#FFC80A"/>
<path d="M38.5918 77.1789C32.3812 79.2299 28.9994 86.199 31.4304 91.937C37.2432 90.7058 41.5505 83.1729 38.5918 77.1789Z" fill="#FFC80A"/>
<path d="M31.7261 65.2077C25.4971 67.2021 22.052 74.1401 24.4306 79.8999C30.2544 78.7217 34.6301 71.2283 31.7261 65.2077Z" fill="#FFC80A"/>
<path d="M30.0097 54.1337C23.2503 54.2439 17.7667 60.0779 18.3974 66.488C24.5117 67.0642 31.0822 60.959 30.0097 54.1337Z" fill="#FFC80A"/>
<path d="M29.9007 43.3462C23.8432 41.8562 17.5792 45.7734 16.6357 51.6415C21.9562 53.5924 29.2538 49.6886 29.9007 43.3462Z" fill="#FFC80A"/>
<path d="M33.8533 32.6361C28.2236 29.9492 21.2956 32.5155 19.1823 38.0705C23.997 41.0593 31.9343 38.7157 33.8533 32.6361Z" fill="#FFC80A"/>
<path d="M37.1193 23.6744C32.8911 20.4621 26.6732 21.404 23.9519 25.669C27.4485 28.9922 34.4693 28.4102 37.1193 23.6744Z" fill="#FFC80A"/>
<path d="M45.6049 13.979C41.8035 10.2715 35.5169 10.4421 32.2921 14.3404C35.3539 18.068 42.393 18.3533 45.6049 13.979Z" fill="#FFC80A"/>
<path d="M21.6646 103.353C25.7039 109.286 34.0771 110.749 39.396 106.451C36.3417 100.691 27.0943 98.422 21.6646 103.353Z" fill="#FFC80A"/>
<path d="M13.8717 89.2469C17.124 94.9215 24.6288 96.8404 29.7643 93.3104C27.395 87.8615 19.1525 85.1486 13.8717 89.2469Z" fill="#FFC80A"/>
<path d="M6.90275 77.0494C10.1032 82.7534 17.5903 84.7405 22.7577 81.2575C20.438 75.7872 12.2206 72.9994 6.90275 77.0494Z" fill="#FFC80A"/>
<path d="M1.91046 58.4263C3.37096 65.0269 10.1842 69.2323 16.3385 67.3317C15.6795 61.2258 8.38314 56.0098 1.91046 58.4263Z" fill="#FFC80A"/>
<path d="M3.81879 40.5732C3.57098 46.8064 8.66239 52.1599 14.6006 51.9101C15.4474 46.3068 10.1624 39.9379 3.81879 40.5732Z" fill="#FFC80A"/>
<path d="M8.87776 24.6342C7.37168 30.6877 11.2723 36.9621 17.1379 37.9212C19.1028 32.6058 15.2184 25.2979 8.87776 24.6342Z" fill="#FFC80A"/>
<path d="M17.682 12.6894C15.3807 17.4748 17.5478 23.3785 22.2711 25.1914C24.8273 21.1005 22.8523 14.3381 17.682 12.6894Z" fill="#FFC80A"/>
<path d="M27.6655 0.688511C24.7936 5.15486 26.2187 11.2802 30.6834 13.6597C33.723 9.91399 32.594 2.96017 27.6655 0.688511Z" fill="#FFC80A"/>
<path d="M182.32 88.0548C188.941 90.8254 192.049 98.7366 188.903 104.808C182.648 102.968 178.575 94.3615 182.32 88.0548Z" fill="#FFC80A"/>
<path d="M191.408 77.1789C197.619 79.2299 201.001 86.199 198.57 91.937C192.757 90.7058 188.45 83.1729 191.408 77.1789Z" fill="#FFC80A"/>
<path d="M198.274 65.2077C204.503 67.2021 207.948 74.1401 205.569 79.8999C199.746 78.7217 195.37 71.2283 198.274 65.2077Z" fill="#FFC80A"/>
<path d="M199.99 54.1337C206.75 54.2439 212.233 60.0779 211.603 66.488C205.488 67.0642 198.918 60.959 199.99 54.1337Z" fill="#FFC80A"/>
<path d="M200.099 43.3462C206.157 41.8562 212.421 45.7734 213.364 51.6415C208.044 53.5924 200.746 49.6886 200.099 43.3462Z" fill="#FFC80A"/>
<path d="M196.147 32.6361C201.776 29.9492 208.704 32.5155 210.818 38.0705C206.003 41.0593 198.066 38.7157 196.147 32.6361Z" fill="#FFC80A"/>
<path d="M192.881 23.6744C197.109 20.4621 203.327 21.404 206.048 25.669C202.551 28.9922 195.531 28.4102 192.881 23.6744Z" fill="#FFC80A"/>
<path d="M184.395 13.979C188.196 10.2715 194.483 10.4421 197.708 14.3404C194.646 18.068 187.607 18.3533 184.395 13.979Z" fill="#FFC80A"/>
<path d="M208.335 103.353C204.296 109.286 195.923 110.749 190.604 106.451C193.658 100.691 202.906 98.422 208.335 103.353Z" fill="#FFC80A"/>
<path d="M216.128 89.2469C212.876 94.9215 205.371 96.8404 200.236 93.3104C202.605 87.8615 210.848 85.1486 216.128 89.2469Z" fill="#FFC80A"/>
<path d="M223.097 77.0494C219.897 82.7534 212.41 84.7405 207.242 81.2575C209.562 75.7872 217.779 72.9994 223.097 77.0494Z" fill="#FFC80A"/>
<path d="M228.09 58.4263C226.629 65.0269 219.816 69.2323 213.662 67.3317C214.32 61.2258 221.617 56.0098 228.09 58.4263Z" fill="#FFC80A"/>
<path d="M226.181 40.5732C226.429 46.8064 221.338 52.1599 215.399 51.9101C214.553 46.3068 219.838 39.9379 226.181 40.5732Z" fill="#FFC80A"/>
<path d="M221.122 24.6342C222.628 30.6877 218.728 36.9621 212.862 37.9212C210.897 32.6058 214.782 25.2979 221.122 24.6342Z" fill="#FFC80A"/>
<path d="M212.318 12.6894C214.619 17.4748 212.452 23.3785 207.729 25.1914C205.173 21.1005 207.148 14.3381 212.318 12.6894Z" fill="#FFC80A"/>
<path d="M202.335 0.688511C205.206 5.15486 203.781 11.2802 199.317 13.6597C196.277 9.91399 197.406 2.96017 202.335 0.688511Z" fill="#FFC80A"/>
</svg>
