<svg width="12" height="9" viewBox="0 0 12 9" fill="none" xmlns="http://www.w3.org/2000/svg">
<path d="M11.4786 0.883652C11.1399 0.526582 10.5753 0.510862 10.2177 0.850352L4.5239 6.25023L1.8081 3.46183C1.46414 3.10893 0.900171 3.10123 0.546971 3.44523C0.194071 3.78883 0.186631 4.35343 0.530301 4.70633L3.86003 8.12493C4.03453 8.30423 4.26643 8.39453 4.49893 8.39453C4.71953 8.39453 4.94014 8.31313 5.11291 8.14993L11.4453 2.14453C11.8026 1.80559 11.8177 1.24102 11.4786 0.883652Z" fill="url(#paint0_linear_468_2500)"/>
<path d="M11.4786 0.883652C11.1399 0.526582 10.5753 0.510862 10.2177 0.850352L4.5239 6.25023L1.8081 3.46183C1.46414 3.10893 0.900171 3.10123 0.546971 3.44523C0.194071 3.78883 0.186631 4.35343 0.530301 4.70633L3.86003 8.12493C4.03453 8.30423 4.26643 8.39453 4.49893 8.39453C4.71953 8.39453 4.94014 8.31313 5.11291 8.14993L11.4453 2.14453C11.8026 1.80559 11.8177 1.24102 11.4786 0.883652Z" fill="url(#paint1_linear_468_2500)"/>
<defs>
<linearGradient id="paint0_linear_468_2500" x1="6.00038" y1="0.605469" x2="6.00038" y2="8.39453" gradientUnits="userSpaceOnUse">
<stop stop-color="#FFC80A"/>
<stop offset="1" stop-color="#E99400"/>
</linearGradient>
<linearGradient id="paint1_linear_468_2500" x1="6.00038" y1="0.605469" x2="6.00038" y2="8.39453" gradientUnits="userSpaceOnUse">
<stop stop-color="#FAA500"/>
<stop offset="1" stop-color="#D56600"/>
</linearGradient>
</defs>
</svg>
