<svg width="60" height="60" viewBox="0 0 60 60" fill="none" xmlns="http://www.w3.org/2000/svg">
<path fill-rule="evenodd" clip-rule="evenodd" d="M6.96094 0.959961H53.0409V47.0399H6.96094V0.959961ZM8.88094 2.87996V45.1199H51.1209V2.87996H8.88094Z" fill="black"/>
<path fill-rule="evenodd" clip-rule="evenodd" d="M52.078 10.5597H7.91797V8.63965H52.078V10.5597Z" fill="black"/>
<path fill-rule="evenodd" clip-rule="evenodd" d="M47.2812 4.7998H49.2011V6.7198H47.2812V4.7998Z" fill="black"/>
<path fill-rule="evenodd" clip-rule="evenodd" d="M43.4414 4.7998H45.3613V6.7198H43.4414V4.7998Z" fill="black"/>
<path fill-rule="evenodd" clip-rule="evenodd" d="M39.6016 4.7998H41.5215V6.7198H39.6016V4.7998Z" fill="black"/>
<path fill-rule="evenodd" clip-rule="evenodd" d="M11.7617 4.7998H34.8017V6.7198H11.7617V4.7998Z" fill="black"/>
<path fill-rule="evenodd" clip-rule="evenodd" d="M17.5196 39.3074C17.5196 39.307 17.5195 39.3065 16.561 39.3598C15.6025 39.413 15.6025 39.4124 15.6024 39.4117L15.6023 39.41L15.6021 39.4055C15.6019 39.4019 15.6017 39.3972 15.6014 39.3916C15.6009 39.3803 15.6002 39.3648 15.5995 39.3453C15.5981 39.3064 15.5964 39.2513 15.5953 39.1812C15.593 39.0409 15.5925 38.8402 15.5995 38.5871C15.6134 38.0811 15.657 37.3638 15.7748 36.5001C16.0099 34.7759 16.5434 32.4484 17.7424 30.0504C20.1692 25.1969 25.2577 20.1958 35.67 19.2041L35.8521 21.1155C26.1044 22.0438 21.5929 26.6426 19.4597 30.9091C18.3787 33.0711 17.8921 35.1836 17.6772 36.7595C17.57 37.5458 17.5311 38.1934 17.5188 38.64C17.5126 38.8631 17.5131 39.0355 17.515 39.1493C17.516 39.2062 17.5173 39.2484 17.5182 39.275C17.5187 39.2882 17.5191 39.2976 17.5194 39.3029L17.5196 39.3074Z" fill="black"/>
<path fill-rule="evenodd" clip-rule="evenodd" d="M34.4101 20.3202L30.6523 17.3622L31.8399 15.8535L37.1064 19.9991L32.9608 25.2655L31.4521 24.078L34.4101 20.3202Z" fill="black"/>
<path fill-rule="evenodd" clip-rule="evenodd" d="M45.6427 23.7186L39.8828 17.9587L41.2405 16.6011L47.0004 22.3609L45.6427 23.7186Z" fill="black"/>
<path fill-rule="evenodd" clip-rule="evenodd" d="M39.8828 22.3609L45.6427 16.6011L47.0004 17.9587L41.2405 23.7186L39.8828 22.3609Z" fill="black"/>
<circle cx="16.3253" cy="18.5777" r="2.86436" fill="#FFC80A" stroke="black" stroke-width="2"/>
<circle cx="33.88" cy="35.548" r="2.86436" fill="#FFC80A" stroke="black" stroke-width="2"/>
</svg>
