<svg width="60" height="60" viewBox="0 0 60 60" fill="none" xmlns="http://www.w3.org/2000/svg">
<circle cx="29.982" cy="23.9815" r="10.1695" fill="#FFC80A"/>
<path fill-rule="evenodd" clip-rule="evenodd" d="M35.6517 23.9998L33.0664 21.4149L34.424 20.0571L38.3671 23.9998L34.424 27.9425L33.0664 26.5847L35.6517 23.9998Z" fill="black"/>
<path fill-rule="evenodd" clip-rule="evenodd" d="M25.576 20.0571L26.9335 21.4149L24.3483 23.9998L26.9335 26.5847L25.576 27.9425L21.6328 23.9998L25.576 20.0571Z" fill="black"/>
<path fill-rule="evenodd" clip-rule="evenodd" d="M32.8219 19.6267L28.9822 30.0908L27.1797 29.4293L31.0194 18.9653L32.8219 19.6267Z" fill="black"/>
<path fill-rule="evenodd" clip-rule="evenodd" d="M12.7188 0.959961H47.2787V47.0399H12.7188V0.959961ZM14.6387 2.87996V45.1199H45.3587V2.87996H14.6387Z" fill="black"/>
<path fill-rule="evenodd" clip-rule="evenodd" d="M13.6797 8.63965H46.3197V10.5597H13.6797V8.63965Z" fill="black"/>
<path fill-rule="evenodd" clip-rule="evenodd" d="M13.6797 37.4399H46.3197V39.3599H13.6797V37.4399Z" fill="black"/>
<path fill-rule="evenodd" clip-rule="evenodd" d="M24.2383 42.2403C24.2383 41.7101 24.6681 41.2803 25.1983 41.2803H34.7983C35.3285 41.2803 35.7583 41.7101 35.7583 42.2403C35.7583 42.7705 35.3285 43.2003 34.7983 43.2003H25.1983C24.6681 43.2003 24.2383 42.7705 24.2383 42.2403Z" fill="black"/>
<path fill-rule="evenodd" clip-rule="evenodd" d="M30.9591 6.7198H25.1992V4.7998H30.9591V6.7198Z" fill="black"/>
<path fill-rule="evenodd" clip-rule="evenodd" d="M34.7988 6.7198H32.8789V4.7998H34.7988V6.7198Z" fill="black"/>
<path fill-rule="evenodd" clip-rule="evenodd" d="M30.0005 14.4C24.6984 14.4 20.4005 18.6979 20.4005 24C20.4005 29.3021 24.6984 33.6 30.0005 33.6C35.3026 33.6 39.6005 29.3021 39.6005 24C39.6005 18.6979 35.3026 14.4 30.0005 14.4ZM18.4805 24C18.4805 17.6375 23.638 12.48 30.0005 12.48C36.3629 12.48 41.5205 17.6375 41.5205 24C41.5205 30.3625 36.3629 35.52 30.0005 35.52C23.638 35.52 18.4805 30.3625 18.4805 24Z" fill="black"/>
</svg>
