<svg width="20" height="20" viewBox="0 0 20 20" fill="none" xmlns="http://www.w3.org/2000/svg">
<path d="M19.068 14.6675C18.3192 13.32 16.3905 11.7008 15.5942 10.9963C15.3763 10.8033 15.353 10.4696 15.5513 10.2563C17.0709 8.62334 18.2863 6.74709 18.7047 5.61334C18.8892 5.11251 18.5072 4.58334 17.9688 4.58334H16.4051C15.8897 4.58334 15.588 4.76834 15.4442 5.06292C14.1813 7.65084 13.098 8.77084 12.3397 9.42542C11.9151 9.79209 11.253 9.48834 11.253 8.93042C11.253 7.85542 11.253 6.46584 11.253 5.48042C11.253 5.00251 10.8622 4.61584 10.3801 4.61584L7.52341 4.58334C7.16383 4.58334 6.95841 4.99042 7.17424 5.27584L7.64591 5.95292C7.82341 6.18751 7.91924 6.47292 7.91924 6.76584L7.91674 9.81501C7.91674 10.3454 7.27383 10.6046 6.89216 10.2329C5.60091 8.97542 4.48049 6.40751 4.07716 5.17959C3.96049 4.82417 3.62758 4.58417 3.25008 4.58334L1.70966 4.57959C1.13174 4.57959 0.709242 5.12751 0.866325 5.67917C2.27383 10.6196 5.16174 15.3196 10.3084 15.8292C10.8155 15.8792 11.253 15.4708 11.253 14.9654V13.3629C11.253 12.9033 11.6134 12.5083 12.0767 12.4967C12.093 12.4963 12.1092 12.4963 12.1255 12.4963C13.4867 12.4963 15.0113 14.4775 15.5447 15.4042C15.698 15.6708 15.9847 15.8333 16.2947 15.8333H18.3667C18.9713 15.8333 19.3592 15.1921 19.068 14.6675Z" fill="#8D8D8D"/>
</svg>
