<svg width="60" height="60" viewBox="0 0 60 60" fill="none" xmlns="http://www.w3.org/2000/svg">
<path d="M30.3156 31.8301L23.1164 24.9487C15.5769 24.9487 14.8948 34.8999 15.4962 39.8754C23.5064 39.9107 40.5431 39.9601 44.6082 39.8754C46.2173 28.527 40.5502 25.1958 37.5155 24.9487L30.3156 31.8301Z" fill="#FFC80A"/>
<path fill-rule="evenodd" clip-rule="evenodd" d="M29.9996 9.98396C27.2957 9.98396 25.1036 12.1759 25.1036 14.88C25.1036 17.5838 27.2957 19.776 29.9996 19.776C32.7035 19.776 34.8956 17.5838 34.8956 14.88C34.8956 12.1759 32.7035 9.98396 29.9996 9.98396ZM23.1836 14.88C23.1836 11.1154 26.2354 8.06396 29.9996 8.06396C33.7638 8.06396 36.8156 11.1154 36.8156 14.88C36.8156 18.6442 33.7639 21.696 29.9996 21.696C26.2354 21.696 23.1836 18.6442 23.1836 14.88Z" fill="black"/>
<path fill-rule="evenodd" clip-rule="evenodd" d="M37.1202 23.3955L38.6327 23.8491L38.6359 23.8501C42.7659 25.1206 45.6498 28.8402 45.6498 33.2156V41.2795H14.2578V33.2156C14.2578 28.8405 17.1421 25.1209 21.2717 23.8502L21.2865 23.8456L22.8949 23.407L30.0018 30.5139L37.1202 23.3955ZM21.8219 25.6897C18.4713 26.7273 16.1778 29.724 16.1778 33.2156V39.3595H43.7298V33.2156C43.7298 29.7197 41.4315 26.7203 38.0746 25.6863C38.0735 25.6859 38.0724 25.6856 38.0714 25.6853L37.667 25.564L30.0018 33.2292L22.3251 25.5525L21.8219 25.6897Z" fill="black"/>
<path fill-rule="evenodd" clip-rule="evenodd" d="M38.0625 8.64021C36.4636 8.64021 35.048 9.43796 34.2688 10.6847L32.6406 9.66711C33.7812 7.84227 35.8216 6.72021 38.0625 6.72021C41.6647 6.72021 44.5906 9.64612 44.5906 13.2483C44.5906 16.8505 41.6647 19.7764 38.0625 19.7764C36.7497 19.7764 35.4708 19.4464 34.401 18.6142L35.58 17.0988C36.2378 17.6106 37.0711 17.8564 38.0625 17.8564C40.6043 17.8564 42.6706 15.7901 42.6706 13.2483C42.6706 10.7065 40.6043 8.64021 38.0625 8.64021Z" fill="black"/>
<path fill-rule="evenodd" clip-rule="evenodd" d="M44.7887 21.2959L46.3927 21.7333L46.4031 21.7364C50.3711 22.9156 53.0417 26.5606 53.0417 30.7204V38.4003H44.6895V36.4803H51.1217V30.7204C51.1217 27.3958 48.997 24.515 45.8663 23.5798L45.3585 23.4414L41.9123 26.8875L40.5547 25.5299L44.7887 21.2959Z" fill="black"/>
<path fill-rule="evenodd" clip-rule="evenodd" d="M15.4062 13.2483C15.4062 9.64612 18.3322 6.72021 21.9343 6.72021C24.1753 6.72021 26.2156 7.84227 27.3562 9.66711L25.7281 10.6847C24.9488 9.43796 23.5332 8.64021 21.9343 8.64021C19.3925 8.64021 17.3262 10.7065 17.3262 13.2483C17.3262 15.7901 19.3925 17.8564 21.9343 17.8564C22.9257 17.8564 23.759 17.6106 24.4169 17.0988L25.5958 18.6142C24.5261 19.4464 23.2472 19.7764 21.9343 19.7764C18.3322 19.7764 15.4062 16.8505 15.4062 13.2483Z" fill="black"/>
<path fill-rule="evenodd" clip-rule="evenodd" d="M15.214 21.2959L19.448 25.5299L18.0903 26.8875L14.6441 23.4414L14.1364 23.5798C11.0057 24.515 8.88094 27.3958 8.88094 30.7204V36.4803H15.3131V38.4003H6.96094V30.7204C6.96094 26.5606 9.6316 22.9156 13.5996 21.7364L13.61 21.7333L15.214 21.2959Z" fill="black"/>
</svg>
