<svg width="60" height="60" viewBox="0 0 60 60" fill="none" xmlns="http://www.w3.org/2000/svg">
<g clip-path="url(#clip0_2_167)">
<path d="M16.6711 19.6543L23.5598 26.2388L30.449 19.6543C32.3622 19.8101 34.7239 20.3589 35.8961 22.974C34.0025 24.9578 33.9398 26.595 32.7401 29.9173L32.5095 31.2021C32.4149 31.8487 32.3275 32.5333 32.0187 33.9371C26.8418 35.1323 14.3782 33.9591 9.37954 33.9371C8.80411 29.1762 9.45683 19.6543 16.6711 19.6543Z" fill="#FFC80A"/>
<path fill-rule="evenodd" clip-rule="evenodd" d="M30.3838 18.1157L31.8818 18.5651C34.2717 19.2209 36.0897 20.8463 37.2479 22.8471L35.5863 23.809C34.6345 22.1649 33.1927 20.9129 31.3644 20.4141L31.3528 20.4109L30.9305 20.2843L23.7451 27.4697L16.5596 20.2843L16.1477 20.4078L16.1466 20.4081C12.9913 21.3462 10.8809 24.1476 10.8809 27.3599V33.6H32.2889V35.52H8.96094V27.3599C8.96094 23.2769 11.65 19.7424 15.5983 18.5681C15.5987 18.568 15.5991 18.5678 15.5995 18.5677L17.1063 18.1157L23.7451 24.7544L30.3838 18.1157Z" fill="black"/>
<path fill-rule="evenodd" clip-rule="evenodd" d="M23.3605 5.75984C20.7096 5.75984 18.5606 7.90878 18.5606 10.5597C18.5606 13.2107 20.7096 15.3596 23.3605 15.3596C26.0115 15.3596 28.1604 13.2107 28.1604 10.5597C28.1604 7.90878 26.0115 5.75984 23.3605 5.75984ZM16.6406 10.5597C16.6406 6.8484 19.6492 3.83984 23.3605 3.83984C27.0719 3.83984 30.0804 6.8484 30.0804 10.5597C30.0804 14.2711 27.0719 17.2796 23.3605 17.2796C19.6492 17.2796 16.6406 14.2711 16.6406 10.5597Z" fill="black"/>
<path fill-rule="evenodd" clip-rule="evenodd" d="M35.9131 25.0326C31.9767 28.9691 31.9769 35.3514 35.9131 39.2877C39.8497 43.2243 46.232 43.2242 50.1682 39.2877C54.1047 35.3512 54.1048 28.9692 50.1682 25.0326C46.232 21.0964 39.8497 21.0964 35.9131 25.0326M34.5555 40.6453C29.8695 35.9593 29.8692 28.3612 34.5555 23.675L34.5555 23.675C39.2418 18.989 46.8398 18.9889 51.5258 23.675C56.2122 28.3614 56.2121 35.9591 51.5259 40.6453C46.8398 45.3317 39.2419 45.3317 34.5555 40.6453Z" fill="black"/>
<path fill-rule="evenodd" clip-rule="evenodd" d="M34.5859 39.257L50.1379 23.7051L51.4956 25.0627L35.9436 40.6147L34.5859 39.257Z" fill="black"/>
</g>
<defs>
<clipPath id="clip0_2_167">
<rect width="60" height="60" fill="white"/>
</clipPath>
</defs>
</svg>
