<svg width="22" height="22" viewBox="0 0 22 22" fill="none" xmlns="http://www.w3.org/2000/svg">
<path d="M1.14133 6.85867L3 5L4.94142 3.05858C4.97893 3.02107 5.0298 3 5.08284 3H8.89296C8.95983 3 9.02228 3.03342 9.05937 3.08906L10.8336 5.75038C10.9128 5.86913 11.0872 5.86913 11.1664 5.75039L12.9406 3.08906C12.9777 3.03342 13.0402 3 13.107 3H16.9172C16.9702 3 17.0211 3.02107 17.0586 3.05858L19 5L20.8586 6.85858C20.9367 6.93668 20.9367 7.06332 20.8586 7.14142L18.5801 9.41993C18.5304 9.4696 18.4583 9.48957 18.3901 9.47254L16.7485 9.06213C16.6223 9.03057 16.5 9.12604 16.5 9.25616V18.8C16.5 18.9105 16.4105 19 16.3 19H5.7C5.58954 19 5.5 18.9105 5.5 18.8V9.25616C5.5 9.12604 5.37772 9.03057 5.25149 9.06213L3.60986 9.47254C3.5417 9.48957 3.4696 9.4696 3.41993 9.41993L1.14142 7.14142C1.06332 7.06332 1.06322 6.93678 1.14133 6.85867Z" stroke="#2A2A2A" stroke-linecap="round"/>
</svg>
