<svg width="60" height="60" viewBox="0 0 60 60" fill="none" xmlns="http://www.w3.org/2000/svg">
<circle cx="34.1499" cy="20.144" r="7.57568" fill="#FFC80A"/>
<path fill-rule="evenodd" clip-rule="evenodd" d="M6.96094 2.87988H53.0409V38.3999H6.96094V2.87988ZM8.88094 4.79988V36.4799H51.1209V4.79988H8.88094Z" fill="black"/>
<path fill-rule="evenodd" clip-rule="evenodd" d="M21.3594 44.1598V37.4399H23.2794V44.1598H21.3594Z" fill="black"/>
<path fill-rule="evenodd" clip-rule="evenodd" d="M36.7188 44.1598V37.4399H38.6388V44.1598H36.7188Z" fill="black"/>
<path fill-rule="evenodd" clip-rule="evenodd" d="M42.4795 45.1203H17.5195V43.2002H42.4795V45.1203Z" fill="black"/>
<path fill-rule="evenodd" clip-rule="evenodd" d="M7.92188 30.7197H52.0819V32.6397H7.92188V30.7197Z" fill="black"/>
<path fill-rule="evenodd" clip-rule="evenodd" d="M48.9201 9.31858L33.3612 24.8774L27.6013 19.1175L18.9612 27.7576L16.0814 24.8775L12.9201 28.0388L11.5625 26.6811L16.0815 22.1622L18.9613 25.0423L27.6013 16.4022L33.3612 22.1621L47.5624 7.96094L48.9201 9.31858Z" fill="black"/>
<path fill-rule="evenodd" clip-rule="evenodd" d="M47.2804 9.60018H42.4805V7.68018H49.2004V14.4001H47.2804V9.60018Z" fill="black"/>
</svg>
