<svg width="37" height="37" viewBox="0 0 37 37" fill="none" xmlns="http://www.w3.org/2000/svg">
<path fill-rule="evenodd" clip-rule="evenodd" d="M22 0H6C4.89543 0 4 0.895432 4 2V35C4 36.1046 4.89543 37 6 37H31C32.1046 37 33 36.1046 33 35V11L22 0Z" fill="#0263D1"/>
<path d="M22 0L33 11H23.8033C22.8073 11 22 10.1926 22 9.19672V0Z" fill="#5BB2E2"/>
<path d="M9.24445 24.9028C9.17655 24.9028 9.11883 24.8801 9.0713 24.8347C9.02377 24.7894 9 24.7343 9 24.6694V18.3403C9 18.269 9.02377 18.2106 9.0713 18.1653C9.11883 18.1199 9.17655 18.0972 9.24445 18.0972H11.7297C12.4156 18.0972 12.9792 18.1977 13.4205 18.3986C13.8687 18.5995 14.2048 18.8977 14.4289 19.2931C14.6598 19.6884 14.7786 20.1713 14.7854 20.7417C14.799 21.0269 14.8058 21.2796 14.8058 21.5C14.8058 21.7204 14.799 21.9699 14.7854 22.2486C14.7718 22.8514 14.6564 23.3505 14.4391 23.7458C14.2218 24.1347 13.8925 24.4264 13.4511 24.6208C13.0165 24.8088 12.4597 24.9028 11.7807 24.9028H9.24445ZM10.4158 23.7847H11.7297C12.11 23.7847 12.419 23.7329 12.6566 23.6292C12.8943 23.5255 13.0674 23.3602 13.1761 23.1333C13.2915 22.9 13.3526 22.5954 13.3594 22.2194C13.3662 22.025 13.3696 21.8565 13.3696 21.7139C13.3764 21.5648 13.3764 21.419 13.3696 21.2764C13.3696 21.1273 13.3662 20.9588 13.3594 20.7708C13.3458 20.2394 13.2066 19.8472 12.9418 19.5944C12.677 19.3417 12.256 19.2153 11.6788 19.2153H10.4158V23.7847Z" fill="white"/>
<path d="M18.9016 25C18.2973 25 17.7778 24.906 17.3433 24.7181C16.9087 24.5236 16.5691 24.2287 16.3247 23.8333C16.0802 23.4315 15.9478 22.9324 15.9275 22.3361C15.9207 22.0574 15.9173 21.7819 15.9173 21.5097C15.9173 21.2375 15.9207 20.9588 15.9275 20.6736C15.9478 20.0838 16.0836 19.5912 16.3349 19.1958C16.5861 18.8005 16.929 18.5023 17.3636 18.3014C17.805 18.1005 18.3177 18 18.9016 18C19.4856 18 19.9983 18.1005 20.4397 18.3014C20.881 18.5023 21.2274 18.8005 21.4786 19.1958C21.7298 19.5912 21.8656 20.0838 21.886 20.6736C21.8996 20.9588 21.9064 21.2375 21.9064 21.5097C21.9064 21.7819 21.8996 22.0574 21.886 22.3361C21.8656 22.9324 21.7332 23.4315 21.4888 23.8333C21.2443 24.2287 20.9014 24.5236 20.46 24.7181C20.0255 24.906 19.506 25 18.9016 25ZM18.9016 23.8819C19.343 23.8819 19.7029 23.7588 19.9813 23.5125C20.2597 23.2597 20.4091 22.8514 20.4295 22.2875C20.4431 22.0023 20.4499 21.7398 20.4499 21.5C20.4499 21.2537 20.4431 20.9912 20.4295 20.7125C20.4159 20.3366 20.3412 20.0319 20.2054 19.7986C20.0764 19.5588 19.8998 19.387 19.6757 19.2833C19.4517 19.1731 19.1936 19.1181 18.9016 19.1181C18.6164 19.1181 18.3618 19.1731 18.1377 19.2833C17.9136 19.387 17.7337 19.5588 17.5979 19.7986C17.4689 20.0319 17.3976 20.3366 17.384 20.7125C17.3772 20.9912 17.3738 21.2537 17.3738 21.5C17.3738 21.7398 17.3772 22.0023 17.384 22.2875C17.4044 22.8514 17.5538 23.2597 17.8322 23.5125C18.1106 23.7588 18.4671 23.8819 18.9016 23.8819Z" fill="white"/>
<path d="M25.994 25C25.3625 25 24.826 24.8963 24.3847 24.6889C23.9501 24.475 23.6174 24.1736 23.3865 23.7847C23.1556 23.3894 23.0266 22.9162 22.9994 22.3653C22.9926 22.0995 22.9892 21.8144 22.9892 21.5097C22.9892 21.2051 22.9926 20.9134 22.9994 20.6347C23.0266 20.0903 23.1556 19.6204 23.3865 19.225C23.6241 18.8296 23.9603 18.5282 24.3948 18.3208C24.8362 18.1069 25.3693 18 25.994 18C26.4557 18 26.8699 18.0583 27.2366 18.175C27.6033 18.2917 27.9157 18.4537 28.1737 18.6611C28.4317 18.862 28.632 19.0986 28.7746 19.3708C28.9172 19.6431 28.9919 19.938 28.9987 20.2556C29.0055 20.3139 28.9851 20.3625 28.9376 20.4014C28.8969 20.4403 28.8459 20.4597 28.7848 20.4597H27.8172C27.7425 20.4597 27.6814 20.4435 27.6339 20.4111C27.5863 20.3722 27.5524 20.3106 27.532 20.2264C27.4234 19.7986 27.2366 19.5069 26.9718 19.3514C26.707 19.1958 26.3776 19.1181 25.9838 19.1181C25.5288 19.1181 25.1656 19.2412 24.8939 19.4875C24.6223 19.7273 24.4763 20.1259 24.456 20.6833C24.4356 21.2148 24.4356 21.7593 24.456 22.3167C24.4763 22.8741 24.6223 23.2759 24.8939 23.5222C25.1656 23.762 25.5288 23.8819 25.9838 23.8819C26.3776 23.8819 26.707 23.8042 26.9718 23.6486C27.2366 23.4866 27.4234 23.1949 27.532 22.7736C27.5524 22.6829 27.5863 22.6213 27.6339 22.5889C27.6814 22.5565 27.7425 22.5403 27.8172 22.5403H28.7848C28.8459 22.5403 28.8969 22.5597 28.9376 22.5986C28.9851 22.6375 29.0055 22.6861 28.9987 22.7444C28.9919 23.062 28.9172 23.3569 28.7746 23.6292C28.632 23.9014 28.4317 24.1412 28.1737 24.3486C27.9157 24.5495 27.6033 24.7083 27.2366 24.825C26.8699 24.9417 26.4557 25 25.994 25Z" fill="white"/>
</svg>
