<svg width="60" height="60" viewBox="0 0 60 60" fill="none" xmlns="http://www.w3.org/2000/svg">
<rect x="11.8992" y="11.3999" width="35.0377" height="22.8" fill="#FFC80A"/>
<rect x="28.2586" y="21.3232" width="3.57805" height="6.19472" fill="white"/>
<path fill-rule="evenodd" clip-rule="evenodd" d="M3.73596 1.09424H56.2671V45.9646H3.73596V1.09424ZM5.92476 3.28304V43.7758H54.0783V3.28304H5.92476Z" fill="black"/>
<path fill-rule="evenodd" clip-rule="evenodd" d="M20.1492 52.5316V44.8706H22.3381V52.5316H20.1492Z" fill="black"/>
<path fill-rule="evenodd" clip-rule="evenodd" d="M37.6594 52.5316V44.8706H39.8482V52.5316H37.6594Z" fill="black"/>
<path fill-rule="evenodd" clip-rule="evenodd" d="M44.2278 53.6256H15.7734V51.4368H44.2278V53.6256Z" fill="black"/>
<path fill-rule="evenodd" clip-rule="evenodd" d="M4.83044 38.3042H55.1728V40.493H4.83044V38.3042Z" fill="black"/>
<path fill-rule="evenodd" clip-rule="evenodd" d="M11.3953 10.9441H48.6049V35.0209H11.3953V10.9441ZM13.5841 13.1329V32.8321H46.4161V13.1329H13.5841Z" fill="black"/>
<path fill-rule="evenodd" clip-rule="evenodd" d="M22.3406 6.56641H37.6622V13.1329H22.3406V6.56641ZM24.5294 8.75521V10.9441H35.4734V8.75521H24.5294Z" fill="black"/>
<path fill-rule="evenodd" clip-rule="evenodd" d="M21.6986 22.9823L13.2641 14.5479L11.7164 16.0956L20.7919 25.1711H27.812V22.9823H21.6986Z" fill="black"/>
<path fill-rule="evenodd" clip-rule="evenodd" d="M38.3048 22.982L46.7392 14.5476L48.2869 16.0953L39.2114 25.1708H32.1914V22.982H38.3048Z" fill="black"/>
<path fill-rule="evenodd" clip-rule="evenodd" d="M30.0018 21.888C29.4024 21.888 28.9075 22.3829 28.9075 22.9823V26.2656H31.0964L31.0961 22.9824C31.0961 22.3829 30.6013 21.888 30.0018 21.888ZM26.7188 22.9823C26.7188 21.1741 28.1935 19.6992 30.0018 19.6992C31.8101 19.6992 33.2849 21.1739 33.2849 22.9822C33.2849 22.9823 33.2849 22.9822 33.2849 22.9822L33.2853 28.4544H26.7188V22.9823Z" fill="black"/>
</svg>
