<svg width="20" height="20" viewBox="0 0 20 20" fill="none" xmlns="http://www.w3.org/2000/svg">
<path fill-rule="evenodd" clip-rule="evenodd" d="M3.5 4C2.67157 4 2 4.67157 2 5.5V14.5C2 15.3284 2.67157 16 3.5 16H16.5C17.3284 16 18 15.3284 18 14.5V5.5C18 4.67157 17.3284 4 16.5 4H3.5ZM4.47994 5.42367C4.16164 5.1586 3.68873 5.20176 3.42367 5.52006C3.1586 5.83836 3.20176 6.31127 3.52006 6.57633L9.52179 11.5743C9.8 11.8059 10.204 11.8058 10.4821 11.5739L16.4803 6.57185C16.7985 6.30657 16.8413 5.83363 16.576 5.51551C16.3107 5.19739 15.8378 5.15457 15.5197 5.41985L10.0014 10.0216L4.47994 5.42367Z" fill="#8D8D8D"/>
</svg>
