<svg width="164" height="24" viewBox="0 0 164 24" fill="none" xmlns="http://www.w3.org/2000/svg">
<path d="M0 0.429752V23.5702H3.48609V15.8678H8.74941C13.9102 15.8678 16.5077 12.0331 16.5077 8.16529C16.5077 4.29752 13.9102 0.429752 8.74941 0.429752H0ZM3.48609 12.562V3.80165H8.74941C11.6545 3.80165 13.0899 5.98347 13.0899 8.19835C13.0899 10.3802 11.6545 12.562 8.74941 12.562H3.48609Z" fill="white"/>
<path d="M24.9092 13.4215L33.6244 23.5702H38.1017L30.5485 14.876C34.6497 14.1818 36.7346 11.0744 36.7346 7.80165C36.7346 4.13223 34.1371 0.429752 28.9421 0.429752H20.2269V23.5702H23.6446V3.80165H28.9421C31.8472 3.80165 33.2826 5.81818 33.2826 7.80165C33.2826 9.81818 31.8472 11.8347 28.9421 11.8347H24.9092V13.4215Z" fill="white"/>
<path d="M60.4628 12C60.4628 14.4132 59.4716 16.5289 57.8994 18.0496C56.2931 19.6364 54.0374 20.595 51.645 20.595C49.2526 20.595 47.0652 19.6364 45.4589 18.0496C43.8525 16.5289 42.8614 14.3802 42.8614 12C42.8614 9.61983 43.8525 7.47108 45.4589 5.95041C47.0652 4.36364 49.2526 3.40496 51.645 3.40496C54.0374 3.40496 56.2931 4.36364 57.8994 5.95041C59.4716 7.47108 60.4628 9.58678 60.4628 12ZM39.3411 12C39.3411 15.3058 40.7424 18.281 42.9297 20.4628C45.1513 22.6777 48.2614 24 51.645 24C55.0627 24 58.1387 22.6777 60.3944 20.4628C62.5817 18.281 63.983 15.3058 63.983 12C63.983 8.69421 62.5817 5.71901 60.3944 3.53719C58.1387 1.35537 55.0627 0 51.645 0C48.2614 0 45.1513 1.35537 42.9297 3.53719C40.7424 5.71901 39.3411 8.69421 39.3411 12Z" fill="white"/>
<path d="M70.9063 13.6859H80.476V10.5785H70.9063V3.66942H81.7064V0.429752H67.4544V23.5702H70.9063V13.6859Z" fill="white"/>
<path d="M83.7155 4.09491V20.3636H79.2724V23.5702H91.6105V20.3636H87.1674V3.63636H91.6105V0.46281H83.7195V4.09491H83.7155Z" fill="white"/>
<path d="M104.75 3.60331V23.5702H101.298V3.60331H94.0525V0.429752H111.962V3.60331H104.75Z" fill="white"/>
<path d="M114.59 0.510427V23.4891H115.343V0.510427H114.59ZM115.96 12.2952L129.045 23.4891H130.243L116.679 11.967L129.901 0.510427H128.702L115.96 11.7043V12.2952Z" fill="white"/>
<path d="M143.719 0.510427H132.895V1.13414H137.93V22.8326H132.895V23.4891H143.719V22.8326H138.649V1.13414H143.719V0.510427Z" fill="white"/>
<path d="M155.779 23.4891V1.23262H164V0.510427H146.839V1.23262H155.06V23.4891H155.779Z" fill="white"/>
</svg>