<svg width="20" height="20" viewBox="0 0 20 20" fill="none" xmlns="http://www.w3.org/2000/svg">
<path d="M19.0679 14.6675C18.3191 13.32 16.3904 11.7008 15.5941 10.9963C15.3762 10.8033 15.3529 10.4696 15.5512 10.2563C17.0708 8.62334 18.2862 6.74709 18.7045 5.61334C18.8891 5.11251 18.507 4.58334 17.9687 4.58334H16.405C15.8895 4.58334 15.5879 4.76834 15.4441 5.06292C14.1812 7.65084 13.0979 8.77084 12.3395 9.42542C11.915 9.79209 11.2529 9.48834 11.2529 8.93042C11.2529 7.85542 11.2529 6.46584 11.2529 5.48042C11.2529 5.00251 10.862 4.61584 10.38 4.61584L7.52329 4.58334C7.1637 4.58334 6.95829 4.99042 7.17412 5.27584L7.64579 5.95292C7.82329 6.18751 7.91912 6.47292 7.91912 6.76584L7.91662 9.81501C7.91662 10.3454 7.2737 10.6046 6.89204 10.2329C5.60079 8.97542 4.48037 6.40751 4.07704 5.17959C3.96037 4.82417 3.62745 4.58417 3.24995 4.58334L1.70954 4.57959C1.13162 4.57959 0.70912 5.12751 0.866203 5.67917C2.2737 10.6196 5.16162 15.3196 10.3083 15.8292C10.8154 15.8792 11.2529 15.4708 11.2529 14.9654V13.3629C11.2529 12.9033 11.6133 12.5083 12.0766 12.4967C12.0929 12.4963 12.1091 12.4963 12.1254 12.4963C13.4866 12.4963 15.0112 14.4775 15.5445 15.4042C15.6979 15.6708 15.9845 15.8333 16.2945 15.8333H18.3666C18.9712 15.8333 19.3591 15.1921 19.0679 14.6675Z" fill="#8D8D8D"/>
</svg>
